<?xml version="1.0" encoding="UTF-8"?>
<svg version="1.1" xmlns="http://www.w3.org/2000/svg" width="512" height="512">
<path d="M0 0 C1.86098019 1.43749212 3.72297993 2.87366519 5.5859375 4.30859375 C6.5150293 5.02515137 7.44412109 5.74170898 8.40136719 6.47998047 C12.43484523 9.56402203 16.52584042 12.56662762 20.625 15.5625 C28.25302844 21.14824713 35.78146605 26.855279 43.2890625 32.6015625 C49.02402727 36.98314326 54.80259563 41.29792958 60.625 45.5625 C68.25240017 51.1491242 75.78144565 56.85526338 83.2890625 62.6015625 C89.02402795 66.98314378 94.80261155 71.2979066 100.625 75.5625 C109.30692948 81.92197438 117.87162154 88.42858758 126.41796875 94.96875 C127.21122559 95.56945312 128.00448242 96.17015625 128.82177734 96.7890625 C130.34877721 97.96482326 131.85504199 99.16804994 133.33837891 100.3984375 C134.02722168 100.95789063 134.71606445 101.51734375 135.42578125 102.09375 C136.02173096 102.59455078 136.61768066 103.09535156 137.23168945 103.61132812 C139.13890111 104.76832026 139.13890111 104.76832026 141.58032227 104.41088867 C144.4060957 103.46878345 146.20038151 102.29552151 148.5390625 100.45703125 C149.37244141 99.81056641 150.20582031 99.16410156 151.06445312 98.49804688 C152.39379883 97.44713867 152.39379883 97.44713867 153.75 96.375 C155.64739534 94.90100126 157.54585388 93.42837021 159.4453125 91.95703125 C160.39954102 91.21533691 161.35376953 90.47364258 162.33691406 89.70947266 C166.3841018 86.59292546 170.49913689 83.5736547 174.625 80.5625 C181.35087806 75.63812099 188.00555914 70.62899286 194.625 65.5625 C202.01141792 59.90896605 209.45694466 54.34779806 216.9609375 48.8515625 C222.90171433 44.48972968 228.7725326 40.04195452 234.625 35.5625 C242.0047711 29.9140535 249.44251983 24.35635736 256.94116211 18.86694336 C263.94868911 13.72389162 270.85978194 8.45833398 277.74609375 3.15429688 C293.64372357 -9.04475188 306.4495523 -17.39823249 327.125 -15.4375 C340.72538327 -12.95524426 351.00157221 -5.49305261 359.125 5.5625 C362.68778975 11.97382094 365.24370449 18.05736748 365.25922108 25.43365002 C365.26367892 26.41838147 365.26813676 27.40311293 365.27272969 28.41768473 C365.27245315 30.0368702 365.27245315 30.0368702 365.27217102 31.68876648 C365.27584771 32.83739585 365.2795244 33.98602522 365.2833125 35.16946155 C365.29242991 38.35829891 365.29704696 41.54710602 365.29970181 44.73595417 C365.30360911 48.17508738 365.31318711 51.61420575 365.32191467 55.05332947 C365.34166639 63.35878094 365.35174336 71.66423361 365.36064246 79.96970269 C365.36502722 83.88209867 365.37039352 87.79449329 365.37563133 91.7068882 C365.39264183 104.71439553 365.40713591 117.72190201 365.41438007 130.72941875 C365.41628992 134.10403634 365.41821026 137.47865392 365.42016602 140.85327148 C365.42064976 141.69200205 365.4211335 142.53073262 365.4216319 143.39487926 C365.42993191 156.98122565 365.45526912 170.56748399 365.48774669 184.15379193 C365.52082728 198.1062269 365.53882971 212.05861714 365.54202431 226.01109153 C365.54418842 233.84343001 365.55292249 241.67564006 365.57848549 249.50794029 C365.60020611 256.17831013 365.60823623 262.84852033 365.59851871 269.51892152 C365.59397797 272.92061172 365.59584645 276.32197264 365.61528015 279.72361755 C365.63295344 283.41646125 365.62591408 287.1084712 365.61274719 290.80131531 C365.62371644 291.86961868 365.63468568 292.93792204 365.64598733 294.03859824 C365.56283647 303.70722567 362.62431025 310.70724573 356.05078125 317.7734375 C331.69660804 340.39861261 278.73726659 326.5625 258.125 326.5625 C257.63 241.4225 257.63 241.4225 257.125 154.5625 C251.185 159.1825 245.245 163.8025 239.125 168.5625 C236.03122332 170.87407654 232.93859956 173.17212384 229.8125 175.4375 C223.02137129 180.4002479 216.30345525 185.44920225 209.625 190.5625 C202.24032471 196.21490064 194.797603 201.77647959 187.29345703 207.26904297 C182.21153896 210.99831909 177.18453577 214.79224524 172.18359375 218.62939453 C167.84377812 221.957692 163.48515736 225.26092644 159.125 228.5625 C158.30032227 229.1915625 157.47564453 229.820625 156.62597656 230.46875 C154.30638601 232.22824657 151.96947808 233.96136838 149.625 235.6875 C148.93712402 236.2148877 148.24924805 236.74227539 147.54052734 237.28564453 C145.59375 238.6953125 145.59375 238.6953125 142.125 240.5625 C138.42796888 239.52786377 135.71557005 237.69990909 132.7109375 235.359375 C131.87755859 234.71613281 131.04417969 234.07289063 130.18554688 233.41015625 C129.29931641 232.71792969 128.41308594 232.02570313 127.5 231.3125 C125.60255723 229.84766892 123.70409963 228.38415155 121.8046875 226.921875 C120.85045898 226.18646484 119.89623047 225.45105469 118.91308594 224.69335938 C114.85758367 221.59384766 110.74601637 218.57404553 106.625 215.5625 C98.99694484 209.97678994 91.46853315 204.26972039 83.9609375 198.5234375 C77.46456937 193.5601356 70.90236935 188.69485325 64.30664062 183.86474609 C57.3337259 178.74574124 50.45235551 173.51058874 43.59179688 168.2421875 C37.50321285 163.5757193 31.33468505 159.07863458 25.125 154.5625 C24.795 211.3225 24.465 268.0825 24.125 326.5625 C-64.453125 326.5625 -64.453125 326.5625 -74.12109375 317.421875 C-81.73233841 309.35293857 -83.17379268 302.14769303 -83.14915466 291.22264099 C-83.15439134 290.07512503 -83.15962802 288.92760907 -83.16502339 287.7453199 C-83.1774148 284.56869092 -83.18086734 281.39219929 -83.18042648 278.21555078 C-83.18207779 274.78590723 -83.19515035 271.35630368 -83.20661926 267.92668152 C-83.22944622 260.4305358 -83.23738771 252.93441844 -83.24244571 245.43824267 C-83.24570607 240.75352798 -83.2522307 236.06882147 -83.2594471 231.3841114 C-83.27901174 218.40226602 -83.29541617 205.42042824 -83.29832363 192.43856716 C-83.2985112 191.60818182 -83.29869877 190.77779648 -83.29889202 189.92224795 C-83.29925827 188.2389886 -83.29962196 186.55572925 -83.29998314 184.87246989 C-83.30016595 184.03694497 -83.30034876 183.20142004 -83.30053711 182.34057617 C-83.30071766 181.50402585 -83.30089821 180.66747553 -83.30108423 179.8055752 C-83.30462328 166.26082807 -83.33162942 152.71624018 -83.369035 139.17154824 C-83.40717031 125.25066425 -83.4264815 111.32985914 -83.42678314 97.40892178 C-83.42736662 89.59881802 -83.43578706 81.78890413 -83.46478081 73.97884941 C-83.48936498 67.32617685 -83.49653058 60.67376337 -83.48153328 54.0210576 C-83.47439206 50.63082931 -83.47785181 47.24152563 -83.49794388 43.85128784 C-83.60396344 24.79448388 -82.85685342 10.89382414 -69 -3.3671875 C-47.45749188 -23.60672134 -20.86078923 -16.31966504 0 0 Z " fill="#E53834" transform="translate(114.875,100.4375)"/>
<path d="M0 0 C1.44530213 0.95913441 2.89002561 1.91914082 4.33450317 2.8795166 C5.5413914 3.68128201 5.5413914 3.68128201 6.77266121 4.49924469 C9.18057909 6.12167212 11.50699186 7.81884904 13.8046875 9.59375 C14.62517578 10.22410156 15.44566406 10.85445312 16.29101562 11.50390625 C17.57008789 12.49197266 17.57008789 12.49197266 18.875 13.5 C25.69965725 18.73786415 32.55743138 23.91942858 39.5 29 C47.1246969 34.58410528 54.65075742 40.28816251 62.15527344 46.0324707 C67.97576988 50.47960971 73.84167798 54.85784378 79.75 59.1875 C86.09006436 63.83382155 92.38205149 68.53634005 98.625 73.3125 C99.35428711 73.87026123 100.08357422 74.42802246 100.83496094 75.00268555 C105.86122736 78.86122736 105.86122736 78.86122736 107 80 C107.09704641 82.24024643 107.12186656 84.48362054 107.12025452 86.72596741 C107.12110894 87.43735994 107.12196337 88.14875248 107.12284368 88.88170236 C107.12450057 91.28322048 107.11897374 93.68466988 107.11352539 96.08618164 C107.11324354 97.80059304 107.11340122 99.51500456 107.1139679 101.22941589 C107.11425594 105.89863973 107.10835804 110.56783812 107.10139394 115.23705602 C107.09516161 120.11111527 107.0945567 124.98517505 107.09336853 129.85923767 C107.09025486 139.0956943 107.08204098 148.33213915 107.07201904 157.56859058 C107.06085902 168.08110865 107.05534774 178.59362728 107.05032361 189.10614979 C107.0398584 210.73743978 107.02225826 232.36871915 107 254 C96.48131132 254.09295796 85.96272145 254.16389547 75.44370461 254.20724869 C70.55851282 254.22806323 65.67360349 254.25626803 60.78857422 254.30175781 C56.06825383 254.34543535 51.34820397 254.36918316 46.62769699 254.37950897 C44.8328768 254.3868612 43.03807028 254.40121788 41.24336624 254.42292023 C28.51147151 254.57066216 18.45774893 254.03391717 8.75390625 244.859375 C1.73571134 237.41915055 -0.30782603 230.68580005 -0.24050903 220.54678345 C-0.24221788 219.60243986 -0.24392673 218.65809626 -0.24568737 217.6851362 C-0.24897798 214.52520207 -0.23798552 211.36548093 -0.22705078 208.20556641 C-0.22648658 205.93870041 -0.22680341 203.67183405 -0.22793579 201.40496826 C-0.22850994 195.25259522 -0.21674553 189.10030005 -0.20278788 182.94794512 C-0.19029089 176.51774013 -0.18911083 170.08753338 -0.18673706 163.65731812 C-0.18122584 152.86511729 -0.16873083 142.07294843 -0.15087891 131.28076172 C-0.13251284 120.16617984 -0.11835989 109.05160572 -0.10986328 97.93701172 C-0.10933783 97.25157908 -0.10881239 96.56614643 -0.10827102 95.85994311 C-0.10566089 92.42123057 -0.10313349 88.98251799 -0.10064721 85.54380536 C-0.07992345 57.02918391 -0.0445566 28.51459349 0 0 Z " fill="#1E87E4" transform="translate(32,173)"/>
<path d="M0 0 C0.09130487 29.14741123 0.16206679 58.29480848 0.20426132 87.4423342 C0.20926398 90.88562864 0.21444128 94.32892279 0.21972656 97.7722168 C0.2207758 98.4576974 0.22182505 99.143178 0.22290608 99.84943075 C0.24029818 110.93995421 0.27182924 122.0303945 0.30861118 133.12086868 C0.34605397 144.50578576 0.3679436 155.8906413 0.37635398 167.27562386 C0.38156742 173.66828795 0.3938158 180.06076356 0.42292023 186.45336723 C0.4501006 192.47221455 0.45843954 198.49079601 0.45243073 204.50969887 C0.45352977 206.71674927 0.46146778 208.9238087 0.4768219 211.13080597 C0.49679041 214.14953498 0.49191374 217.16726671 0.48101807 220.1860199 C0.49849512 221.4890737 0.49849512 221.4890737 0.51632524 222.81845182 C0.429035 231.79606722 -3.01562227 238.69827062 -9.07421875 245.2109375 C-16.14068681 251.77572933 -23.60513066 254.31971654 -33.20849609 254.22705078 C-34.00916504 254.22734283 -34.80983398 254.22763489 -35.63476562 254.22793579 C-38.26443561 254.22654955 -40.8938174 254.21102179 -43.5234375 254.1953125 C-45.35332077 254.19157986 -47.18320605 254.18873407 -49.01309204 254.18673706 C-53.81680877 254.17912039 -58.62040354 254.15948882 -63.42407227 254.1373291 C-68.33087515 254.11682827 -73.23769784 254.10772629 -78.14453125 254.09765625 C-87.76307426 254.07624104 -97.38152697 254.04212888 -107 254 C-107.25714179 231.46896301 -107.45102509 208.93816848 -107.56993389 186.40596104 C-107.6266172 175.94339972 -107.70387204 165.48175092 -107.82983398 155.01977539 C-107.93959115 145.89935421 -108.01046744 136.77959392 -108.03497344 127.65853065 C-108.04929593 122.83007502 -108.08286643 118.00350975 -108.16303062 113.17566109 C-108.2379438 108.62701351 -108.26068147 104.08102618 -108.24418449 99.5318203 C-108.24720014 97.86645649 -108.26894493 96.20099982 -108.31126022 94.53617096 C-108.61438304 81.9903093 -108.61438304 81.9903093 -104.62510109 77.07208061 C-101.85155298 74.7724407 -99.07580397 72.86814683 -96 71 C-94.49184047 69.88815222 -92.99211672 68.76459349 -91.5078125 67.62109375 C-90.04869201 66.55739887 -88.5877068 65.49625787 -87.125 64.4375 C-80.18684154 59.3718084 -73.31996069 54.223679 -66.5 49 C-59.11671012 43.34841735 -51.67412068 37.78939744 -44.17285156 32.2956543 C-38.14507301 27.87022046 -32.18898857 23.35622276 -26.25 18.8125 C-19.95025765 13.99545944 -13.63683461 9.20120325 -7.25 4.5 C-6.62383789 4.03698486 -5.99767578 3.57396973 -5.35253906 3.09692383 C-1.12194684 0 -1.12194684 0 0 0 Z " fill="#4CAF4F" transform="translate(480,173)"/>
<path d="M0 0 C9.80103533 7.49022212 17.08728723 16.64461307 19.75 28.875 C20.48792999 36.09271006 20.6179182 43.37601943 20.81420898 50.62451172 C20.89584262 53.02502557 21.01160761 55.42464175 21.1628418 57.82177734 C22.35413269 77.13056172 22.35413269 77.13056172 18.07199097 83.28778076 C13.887381 87.56416305 9.07108563 90.68119515 3.89596558 93.63568115 C1.28938497 95.14101027 -1.05663086 96.88949905 -3.42578125 98.7421875 C-4.80312889 99.74693177 -6.1819962 100.74959667 -7.5625 101.75 C-14.35362871 106.7127479 -21.07154475 111.76170225 -27.75 116.875 C-35.12885031 122.52294207 -42.56524053 128.08079324 -50.06396484 133.56835938 C-57.10610916 138.73544623 -64.04684296 144.03155594 -70.95898438 149.37109375 C-71.77947266 150.00144531 -72.59996094 150.63179687 -73.4453125 151.28125 C-74.15703613 151.83103516 -74.86875977 152.38082031 -75.60205078 152.94726562 C-78.00397429 154.69589075 -80.44122369 156.35176316 -82.91549683 157.9954834 C-83.72691572 158.53496361 -84.53833462 159.07444382 -85.37434196 159.63027191 C-85.99330912 160.04103218 -86.61227627 160.45179245 -87.25 160.875 C-87.50732872 143.55929847 -87.70111324 126.2441962 -87.81993389 108.92701817 C-87.8765794 100.88567125 -87.95375677 92.84551444 -88.07983398 84.80493164 C-88.18971318 77.79401696 -88.26049504 70.78396427 -88.28497344 63.77221245 C-88.29927708 60.06133031 -88.33271124 56.35291331 -88.41303062 52.64282417 C-88.50212907 48.49328999 -88.50387517 44.34799801 -88.4987793 40.19750977 C-88.53832733 38.97686829 -88.57787537 37.75622681 -88.61862183 36.49859619 C-88.55009872 31.33321366 -88.37375285 28.15659438 -84.88993263 24.18343925 C-82.1032444 21.87820967 -79.27213371 19.85770786 -76.25 17.875 C-74.6046585 16.64121317 -72.96527983 15.39937074 -71.3359375 14.14453125 C-69.76784768 12.98916474 -68.19755786 11.8367777 -66.625 10.6875 C-65.84382813 10.11064453 -65.06265625 9.53378906 -64.2578125 8.93945312 C-49.21716588 -2.10446538 -49.21716588 -2.10446538 -42.9375 -4.4375 C-41.73673828 -4.89576172 -41.73673828 -4.89576172 -40.51171875 -5.36328125 C-27.16423076 -9.85854923 -11.72977549 -7.63337698 0 0 Z " fill="#FABF2D" transform="translate(460.25,92.125)"/>
<path d="M0 0 C1.84478495 1.42352334 3.6898357 2.84670229 5.53515625 4.26953125 C6.85797607 5.29361084 6.85797607 5.29361084 8.20751953 6.33837891 C11.42720117 8.82017722 14.67613967 11.26087121 17.9375 13.6875 C22.58252762 17.14502762 22.58252762 17.14502762 23.6875 18.25 C23.78374593 19.97092653 23.80937598 21.69583382 23.80775452 23.41944885 C23.80981651 25.10013458 23.80981651 25.10013458 23.81192017 26.81477356 C23.80652725 28.67485298 23.80652725 28.67485298 23.80102539 30.57250977 C23.80117142 31.86988068 23.80131744 33.16725159 23.8014679 34.50393677 C23.80175586 38.07195929 23.79585932 41.63994848 23.78889394 45.20796323 C23.78266021 48.9329062 23.78205659 52.65784986 23.78086853 56.38279724 C23.77775527 63.44117363 23.76954195 70.4995346 23.75951904 77.55790418 C23.74835774 85.59162971 23.74284741 93.62535596 23.73782361 101.6590873 C23.72735934 118.18940057 23.70976 134.71969832 23.6875 151.25 C20.35917116 149.96434865 17.71730129 148.7206821 14.9296875 146.484375 C14.23190186 145.93152832 13.53411621 145.37868164 12.81518555 144.80908203 C12.07179932 144.21208496 11.32841309 143.61508789 10.5625 143 C4.24825188 138.0066191 -2.12342822 133.12200628 -8.625 128.375 C-15.41448226 123.40995481 -22.13399141 118.3633386 -28.8125 113.25 C-36.18799402 107.6046269 -43.62243913 102.05134957 -51.11547852 96.56323242 C-59.91042257 90.10572915 -68.57207406 83.47382898 -77.23217773 76.8371582 C-79.26762636 75.22984755 -79.26762636 75.22984755 -81.40917969 73.95753479 C-83.3125 72.25 -83.3125 72.25 -83.8271637 70.00259399 C-83.83336227 69.12469208 -83.83956085 68.24679016 -83.84594727 67.34228516 C-83.8617836 66.34339264 -83.87761993 65.34450012 -83.89393616 64.31533813 C-83.88897629 63.23416718 -83.88401642 62.15299622 -83.87890625 61.0390625 C-83.88510483 59.91994476 -83.89130341 58.80082703 -83.89768982 57.64779663 C-83.90480311 55.2722053 -83.90158785 52.89656428 -83.88891602 50.52099609 C-83.87518393 46.92318855 -83.90894087 43.32805104 -83.94726562 39.73046875 C-84.00742166 22.01216153 -82.19781569 9.45280406 -69.4375 -3.6796875 C-47.64616058 -24.15300235 -21.01677136 -16.39886609 0 0 Z " fill="#C52828" transform="translate(115.3125,100.75)"/>
</svg>
