<?xml version="1.0" encoding="UTF-8"?>
<svg version="1.1" xmlns="http://www.w3.org/2000/svg" width="512" height="512">
<path d="M0 0 C0.65758301 0.13921875 1.31516602 0.2784375 1.99267578 0.421875 C37.86642453 8.31464783 68.26418423 31.34971949 88.19677734 61.83007812 C109.93005911 96.48715996 114.40199779 136.41219325 105.74609375 175.95703125 C95.74052484 218.91385202 76.65052562 259.77094783 55 298 C54.41460449 299.03511719 53.82920898 300.07023437 53.22607422 301.13671875 C51.34627867 304.4499883 49.45684977 307.75753184 47.5625 311.0625 C46.72259521 312.5311853 46.72259521 312.5311853 45.86572266 314.02954102 C36.09503467 330.93802286 25.58138573 347.37299519 14.71557617 363.59472656 C12.93030559 366.2607437 11.15131437 368.93087042 9.37304688 371.6015625 C-0.28154203 386.07210354 -10.19201572 400.34433899 -20.5625 414.3125 C-21.15095703 415.10849609 -21.73941406 415.90449219 -22.34570312 416.72460938 C-23.89450212 418.81838872 -25.4450547 420.91078195 -27 423 C-27.77138306 424.11217896 -27.77138306 424.11217896 -28.55834961 425.24682617 C-29.27196655 426.11464722 -29.27196655 426.11464722 -30 427 C-30.66 427 -31.32 427 -32 427 C-33.7978515 424.68270006 -35.47141523 422.35585424 -37.125 419.9375 C-37.6499707 419.18017578 -38.17494141 418.42285156 -38.71582031 417.64257812 C-39.86857905 415.97934062 -41.01884773 414.31437534 -42.16699219 412.64794922 C-44.02525636 409.96351485 -45.90427879 407.29477582 -47.7890625 404.62890625 C-56.93735654 391.65363662 -65.61882153 378.42899168 -74.09472656 365.00634766 C-75.9014076 362.15556982 -77.72421658 359.31601419 -79.5546875 356.48046875 C-185.57652774 191.95659699 -185.57652774 191.95659699 -169 107 C-164.71109264 87.49227055 -156.25175757 68.78633542 -144 53 C-143.28199219 52.0615625 -142.56398437 51.123125 -141.82421875 50.15625 C-118.53760702 20.70675168 -85.00951351 2.08297246 -47.77734375 -2.55859375 C-31.79217056 -4.23866635 -15.69176351 -3.36381532 0 0 Z M-81 79 C-82.010625 79.763125 -83.02125 80.52625 -84.0625 81.3125 C-97.26045222 93.38722224 -107.01775764 112.03615898 -108.12475586 130.02758789 C-108.91803321 152.5235495 -103.65279897 172.05588999 -88.5625 189.25 C-87.05877981 190.84959497 -85.5388878 192.43420857 -84 194 C-83.38640625 194.62648437 -82.7728125 195.25296875 -82.140625 195.8984375 C-67.31886315 209.89676814 -47.24820846 215.54282263 -27.2578125 215.2109375 C-6.40656288 214.44427785 12.38832322 204.75279516 26.65234375 189.79296875 C41.59723197 172.01327644 47.91650332 151.08578338 46 128 C44.17121228 113.45033264 37.46690403 99.14076243 28 88 C27.2575 87.01 26.515 86.02 25.75 85 C14.14282228 71.35322237 -4.78975552 62.33198305 -22.52026367 60.77929688 C-44.74206615 59.79766929 -63.77732824 64.28374617 -81 79 Z " fill="#EF3B48" transform="translate(287,19)"/>
<path d="M0 0 C1.7327417 0.17909912 1.7327417 0.17909912 3.50048828 0.36181641 C68.80568389 8.77482419 68.80568389 8.77482419 86.5390625 29.51953125 C90.07541218 34.45801255 90.49479159 38.85123813 90.08984375 44.82421875 C86.42256622 55.4593236 78.69057642 60.79073911 69.08984375 65.82421875 C26.60028797 85.45228848 -27.10920455 87.06623315 -73.09765625 87.01171875 C-74.05137115 87.0111145 -75.00508606 87.01051025 -75.98770142 87.0098877 C-194.11649395 86.80847667 -194.11649395 86.80847667 -230.16015625 57.69921875 C-235.83449601 51.76695445 -238.34735425 47.18442086 -238.1796875 38.96875 C-237.36005127 32.44729655 -233.53335543 27.65902625 -228.5546875 23.61328125 C-208.54927449 10.07933862 -177.08344547 0.25504158 -152.91015625 0.82421875 C-150.61108557 1.97375409 -148.72877963 3.00559537 -146.91015625 4.82421875 C-146.43765094 12.14805109 -146.43765094 12.14805109 -147.97558594 14.34887695 C-150.77753062 16.48569569 -153.79820772 16.85427813 -157.19140625 17.4375 C-158.67947701 17.7153146 -160.1675128 17.99331658 -161.65551758 18.27148438 C-162.43263092 18.41239502 -163.20974426 18.55330566 -164.01040649 18.69848633 C-195.82210088 23.30277336 -195.82210088 23.30277336 -221.91015625 39.82421875 C-221.84296686 42.36781721 -221.26444873 43.42380536 -219.58984375 45.31640625 C-183.42131549 73.02995388 -118.25623166 71.05818164 -74.72265625 71.01171875 C-73.14485886 71.01081238 -73.14485886 71.01081238 -71.53518677 71.0098877 C4.18821817 72.01257621 4.18821817 72.01257621 72.52734375 44.86328125 C74.31109706 42.97823562 74.31109706 42.97823562 74.03515625 40.75390625 C69.99048732 32.49743331 58.15682591 29.63417549 50.08984375 26.82421875 C49.45997559 26.60378906 48.83010742 26.38335937 48.18115234 26.15625 C36.60945381 22.21440689 24.68260403 20.06875629 12.66796875 17.9375 C11.59095703 17.74623535 10.51394531 17.5549707 9.40429688 17.35791016 C7.11407371 16.98913969 4.81423474 16.67720707 2.50976562 16.41162109 C1.35541016 16.27320801 0.20105469 16.13479492 -0.98828125 15.9921875 C-2.02887695 15.88543701 -3.06947266 15.77868652 -4.14160156 15.66870117 C-7.77438456 14.56060625 -8.94588221 13.02219576 -10.91015625 9.82421875 C-10.91015625 6.09612528 -10.89007255 3.82080846 -8.21704102 1.10229492 C-5.19732683 -0.57070791 -3.41701815 -0.35481871 0 0 Z " fill="#34D0BA" transform="translate(329.91015625,404.17578125)"/>
</svg>
