<?xml version="1.0" encoding="UTF-8"?>
<svg version="1.1" xmlns="http://www.w3.org/2000/svg" width="512" height="512">
<path d="M0 0 C2.62150352 2.04550499 3.85180932 3.23582995 4.49219131 6.53806686 C4.48666056 7.98159468 4.48666056 7.98159468 4.48101807 9.45428467 C4.48651672 10.56203751 4.49201538 11.66979034 4.49768066 12.81111145 C4.47610901 14.62695992 4.47610901 14.62695992 4.45410156 16.47949219 C4.45468567 17.75779404 4.45526978 19.03609589 4.45587158 20.35313416 C4.45701909 23.85507692 4.43350472 27.35647148 4.40557575 30.85828686 C4.38056773 34.5191234 4.37822059 38.17997257 4.37347412 41.84088135 C4.36104252 48.77177413 4.32821863 55.70241448 4.28807616 62.63319612 C4.24336402 70.52427597 4.22137285 78.41536788 4.20129442 86.30654287 C4.15948599 102.53784301 4.0891306 118.76888929 4 135 C4.94762207 135.14695313 5.89524414 135.29390625 6.87158203 135.4453125 C15.22787088 136.92693325 21.16902098 143.3768836 26 150 C30.96355431 158.95151347 30.30970839 168.3498485 28 178 C27.67 178.99 27.34 179.98 27 181 C30.55299372 184.57794452 34.10943651 188.15241386 37.66894531 191.72387695 C38.87625065 192.93617248 40.08265234 194.1493687 41.28808594 195.36352539 C47.04007316 201.15605316 52.75412882 206.90158391 58.97460938 212.19506836 C64.22593066 216.87479573 69.07057119 222.02397268 74.00927734 227.02978516 C79.2514364 232.33668326 84.50745676 237.53106304 90.18994141 242.37304688 C92.0931514 244.0837282 93.80673052 245.8877568 95.52734375 247.78125 C96.09259766 248.39484375 96.65785156 249.0084375 97.24023438 249.640625 C98.3856434 250.89543442 99.5130334 252.1668985 100.62304688 253.453125 C101.18958984 254.05640625 101.75613281 254.6596875 102.33984375 255.28125 C102.82831787 255.82845703 103.31679199 256.37566406 103.82006836 256.93945312 C109.95575806 259.92449468 119.47521749 256.13832891 125.80859375 254.71484375 C127.87557918 254.26204164 129.94263879 253.80957802 132.00976562 253.35742188 C135.22728036 252.64833651 138.44400171 251.93604713 141.65942383 251.2175293 C144.79052464 250.51989428 147.92427054 249.83533356 151.05859375 249.15234375 C152.00681503 248.93674301 152.95503632 248.72114227 153.93199158 248.49900818 C165.67837825 245.95963663 176.6179014 246.30935542 187.359375 252.3203125 C202.48065738 263.04587326 204.95308085 278.1907837 208.51171875 295.26953125 C208.92881636 297.23882692 209.34670164 299.20795591 209.76533508 301.17692566 C210.8595188 306.33370516 211.94291778 311.49269199 213.02404785 316.65222168 C214.12719367 321.90693044 215.24087626 327.15940423 216.35351562 332.41210938 C217.97636665 340.08065108 219.59519572 347.75002099 221.20581055 355.42114258 C221.45748741 356.61893593 221.45748741 356.61893593 221.71424866 357.84092712 C222.14472957 359.89355446 222.57250585 361.94674854 223 364 C223.19709061 364.93216843 223.39418121 365.86433685 223.59724426 366.82475281 C225.60361247 377.66096545 224.1618542 387.96556166 218.5625 397.4296875 C205.80104553 415.65157201 179.1483624 416.78230811 159.0850246 421.00845218 C155.35905356 421.79420899 151.63405981 422.58457347 147.90895081 423.37440491 C141.54903057 424.72228462 135.18853927 426.06743905 128.82763672 427.41067505 C119.72869822 429.33215941 110.63078095 431.25844289 101.5331552 433.18613207 C87.49768653 436.16007508 73.46169378 439.13153407 59.42529297 442.10107422 C38.06599215 446.61999268 16.70787372 451.14446516 -4.64742756 455.68225288 C-10.42187221 456.90920017 -16.19678134 458.1339245 -21.97211361 459.35668659 C-26.32555948 460.27887738 -30.67845274 461.20365962 -35.03125 462.12890625 C-35.83507425 462.29947351 -36.63889851 462.47004078 -37.46708107 462.64577675 C-48.62197083 465.01565899 -59.74648774 467.484966 -70.81481934 470.23658752 C-83.24816058 473.2318717 -96.77112014 474.46487886 -108.5234375 468.5390625 C-122.28762919 459.98529038 -126.007657 447.81476458 -129.52284241 432.76091766 C-130.84107258 426.9841987 -132.08818157 421.1923777 -133.328125 415.3984375 C-133.62050175 414.03675886 -133.62050175 414.03675886 -133.9187851 412.64757156 C-134.94759204 407.85483313 -135.97183258 403.06114622 -136.9921875 398.26660156 C-138.03849026 393.35460454 -139.10070896 388.44619143 -140.16652298 383.53839684 C-140.99215853 379.72242748 -141.8058712 375.9039841 -142.61647797 372.08479691 C-143.0027594 370.27479313 -143.39340116 368.46571354 -143.78873444 366.65766525 C-147.12396638 351.37209032 -150.09922608 336.32991612 -141.26953125 322.23828125 C-128.42017901 305.08016419 -106.40874087 303.91419033 -86.75 299.8125 C-83.52885155 299.13779673 -80.307956 298.46193028 -77.08746338 297.78410339 C-75.09907243 297.36585557 -73.11027671 296.94952628 -71.12103271 296.53535461 C-70.22869934 296.34813339 -69.33636597 296.16091217 -68.41699219 295.96801758 C-67.63394714 295.80465408 -66.8509021 295.64129059 -66.04412842 295.47297668 C-63.81826407 294.99177079 -63.81826407 294.99177079 -61 294 C-59.43694575 291.21530378 -59.43694575 291.21530378 -58.015625 287.671875 C-57.72707642 286.99572647 -57.43852783 286.31957794 -57.14123535 285.62294006 C-56.16764461 283.33600463 -55.2091567 281.04302247 -54.25 278.75 C-53.56276556 277.12927417 -52.87425559 275.50908871 -52.18457031 273.8894043 C-51.05624071 271.23944298 -49.92872999 268.58916246 -48.80487061 265.93730164 C-45.56829965 258.3056376 -42.27663944 250.69864949 -38.96875 243.09765625 C-38.45439392 241.91555573 -37.94003784 240.7334552 -37.41009521 239.51553345 C-35.34732425 234.77639162 -33.28356602 230.03767995 -31.21984863 225.2989502 C-29.76494421 221.956423 -28.31197278 218.61306139 -26.859375 215.26953125 C-26.42765991 214.27913345 -25.99594482 213.28873566 -25.55114746 212.26832581 C-22.92506476 206.22015738 -20.41229863 200.13659958 -18 194 C-19.17151611 193.56433716 -19.17151611 193.56433716 -20.36669922 193.11987305 C-26.05422214 190.70112025 -30.50562666 184.69576712 -33 179.125 C-34 176 -34 176 -34 173 C-34.80322189 173.01110306 -35.60644379 173.02220612 -36.43400574 173.03364563 C-44.01120841 173.13391613 -51.58808851 173.20999892 -59.16578197 173.25906086 C-63.06141191 173.28513253 -66.95649273 173.32048427 -70.85180664 173.37719727 C-74.61252026 173.43160664 -78.37270644 173.46143883 -82.13378334 173.47438622 C-83.56714492 173.48361035 -85.00047828 173.50162371 -86.43361473 173.52865028 C-88.44398106 173.56504759 -90.45488047 173.56704327 -92.46557617 173.56762695 C-93.60919113 173.57873001 -94.75280609 173.58983307 -95.93107605 173.60127258 C-99.97560077 172.80885743 -101.49012559 171.20241549 -104 168 C-103.9263784 164.24529849 -103.67158839 162.67158839 -101 160 C-98.21591187 159.75949097 -98.21591187 159.75949097 -94.62255859 159.77294922 C-93.96877731 159.77265717 -93.31499603 159.77236511 -92.6414032 159.77206421 C-90.47694704 159.77345935 -88.31283364 159.7890288 -86.1484375 159.8046875 C-84.64914132 159.80841698 -83.1498427 159.81126426 -81.65054321 159.81326294 C-77.70163257 159.82090452 -73.75286871 159.8405574 -69.80401611 159.8626709 C-65.77561428 159.8831181 -61.74718876 159.89226224 -57.71875 159.90234375 C-49.81243259 159.92380289 -41.90623455 159.95794505 -34 160 C-33.85900879 158.895354 -33.71801758 157.79070801 -33.57275391 156.65258789 C-32.42983557 149.36392581 -27.46301998 143.73160884 -21.796875 139.21875 C-17.65292049 136.40806781 -14.09374887 135 -9 135 C-9.00276538 134.32247272 -9.00553076 133.64494543 -9.00837994 132.94688702 C-9.07459023 116.4724273 -9.12425638 99.99800965 -9.15543652 83.52344799 C-9.17091521 75.55651768 -9.19202376 67.5896761 -9.22631836 59.62280273 C-9.25619017 52.68007309 -9.27556771 45.73740769 -9.28226548 38.79461557 C-9.28618154 35.11734682 -9.29540535 31.4402619 -9.31719017 27.76305199 C-9.34129426 23.66120574 -9.34197143 19.55968047 -9.34057617 15.45776367 C-9.351362 14.23425201 -9.36214783 13.01074036 -9.3732605 11.75015259 C-9.36913651 10.63536026 -9.36501251 9.52056793 -9.36076355 8.37199402 C-9.36352893 7.40134601 -9.36629431 6.43069799 -9.36914349 5.43063641 C-9 3 -9 3 -7.66104603 1.19159412 C-5.03638996 -0.69127047 -3.13262023 -0.44751718 0 0 Z M-18 155 C-21.01454376 158.98350425 -22.14712477 163.02534383 -22 168 C-20.80035353 173.70903185 -18.1347927 177.95917986 -14 182 C-8.7667067 185.01920767 -3.92467126 185.92605874 2 185 C7.66844335 183.06049189 11.64860016 178.84715883 15 174 C16.84152373 168.47542882 16.8169855 163.08994339 14.375 157.75 C11.59016611 152.82751193 8.18611943 149.93690833 2.9375 147.6875 C-5.51628383 145.70895485 -12.44736935 148.33684322 -18 155 Z M16 192 C14.42785314 192.99113606 12.85705115 193.98446717 11.29296875 194.98828125 C8.31977274 196.30013435 5.67248101 196.30449944 2.4375 196.5 C-2.33064624 197.07913976 -2.33064624 197.07913976 -5.70166016 200.21557617 C-6.12237793 201.16924072 -6.5430957 202.12290527 -6.9765625 203.10546875 C-7.46938721 204.19456543 -7.96221191 205.28366211 -8.4699707 206.40576172 C-8.97488037 207.59186035 -9.47979004 208.77795898 -10 210 C-10.52875732 211.20027832 -11.05751465 212.40055664 -11.60229492 213.63720703 C-13.37505173 217.68050789 -15.09383858 221.74598507 -16.8125 225.8125 C-18.12265353 228.89813614 -19.43588255 231.98245643 -20.75 235.06640625 C-21.08961258 235.8640036 -21.42922516 236.66160095 -21.77912903 237.48336792 C-24.37896788 243.57659722 -27.02416756 249.64912856 -29.6875 255.71484375 C-30.07467697 256.59763504 -30.46185394 257.48042633 -30.86076355 258.38996887 C-32.38397201 261.8618533 -33.90755847 265.33353493 -35.43984985 268.80142212 C-36.50151352 271.20448174 -37.55780133 273.60984433 -38.61328125 276.015625 C-38.92720825 276.72150253 -39.24113525 277.42738007 -39.5645752 278.15464783 C-41.4113885 282.378403 -42.82838237 286.53994304 -44 291 C-37.0344213 290.26760778 -30.27759559 288.87786382 -23.43359375 287.40795898 C-22.19372208 287.14446655 -20.9538504 286.88097412 -19.67640686 286.60949707 C-16.29824441 285.89150502 -12.92097327 285.16939993 -9.54385376 284.44652057 C-6.00631265 283.69004584 -2.46795665 282.93740205 1.0703125 282.18434143 C7.76069831 280.75980318 14.45035039 279.33185005 21.1397419 277.90265089 C28.75953001 276.2748463 36.38013394 274.65087725 44.00080681 273.02722061 C59.66811248 269.6890632 75.33439309 266.34612067 91 263 C88.63139454 259.9954226 86.38987992 257.31087285 83.4375 254.875 C77.47908741 249.777247 72.06424159 244.12226272 66.56347656 238.54296875 C59.96376388 231.82951874 59.96376388 231.82951874 53 225.5 C47.19113392 220.53111252 41.92616785 214.98221783 36.56347656 209.54296875 C27.40395438 199.11878614 27.40395438 199.11878614 16 192 Z M137.79296875 265.625 C135.47645246 266.12117758 133.15965661 266.61605146 130.84260559 267.10972595 C124.59007124 268.44545079 118.34137294 269.79837764 112.09320068 271.15433884 C106.18665785 272.43322175 100.27729808 273.6988676 94.36781096 274.96406305 C85.51779548 276.85888481 76.66838615 278.75649374 67.82077026 280.66249084 C49.11275914 284.6924644 30.39767768 288.68732846 11.67578125 292.65234375 C10.41630362 292.91916584 9.15682598 293.18598793 7.85918236 293.46089554 C1.63858862 294.77873127 -4.58209107 296.09616065 -10.80282593 297.41333008 C-27.42073199 300.93225842 -44.03743824 304.45650736 -60.64805317 308.00971031 C-67.04086344 309.3750962 -73.43758962 310.72034606 -79.83735657 312.05272961 C-84.09088119 312.94054258 -88.34203793 313.83934902 -92.59280396 314.7402668 C-94.58320722 315.15948443 -96.57462204 315.5739334 -98.56710815 315.98313713 C-117.15321432 319.2452008 -117.15321432 319.2452008 -131 331 C-136.86950923 343.148001 -131.708503 359.19295846 -128.984375 371.6171875 C-128.56691976 373.56936536 -128.1505378 375.52177301 -127.73516846 377.47439575 C-126.86707418 381.53910741 -125.98862435 385.60138926 -125.10205078 389.66210938 C-123.97070947 394.84627553 -122.86194808 400.03495392 -121.76040268 405.22552299 C-120.90496577 409.24734998 -120.0395518 413.26697798 -119.1709671 417.28598404 C-118.75854529 419.19824415 -118.34872257 421.11106686 -117.94164276 423.02447128 C-117.3703058 425.70068058 -116.78602864 428.37374865 -116.19824219 431.04638672 C-116.03495926 431.82267929 -115.87167633 432.59897186 -115.70344543 433.39878845 C-113.65237137 442.57156941 -110.35341063 451.30359742 -102.375 456.8125 C-83.54548834 463.43769855 -58.62858533 453.46301873 -39.65246391 449.42733693 C-35.5049696 448.54596631 -31.35675336 447.66800597 -27.20861816 446.78965759 C-19.31155548 445.11698126 -11.41509996 443.44145739 -3.51887751 441.76481956 C6.1093368 439.72053371 15.73823806 437.67949183 25.3671875 435.63867188 C27.94884785 435.09147452 30.53050669 434.54426998 33.11216497 433.99706286 C34.82369681 433.63428805 36.53522971 433.27151831 38.24676371 432.90875369 C43.34432919 431.8282846 48.44183421 430.74753079 53.53929186 429.66655308 C74.75257107 425.16806885 95.96781985 420.6791385 117.1875 416.2109375 C118.89103386 415.85203021 118.89103386 415.85203021 120.62898254 415.48587227 C136.45273148 412.15277112 152.28274422 408.85103404 168.12731934 405.61824036 C175.2095611 404.16360822 182.19877323 402.49772218 189.15625 400.52734375 C189.85335083 400.33620499 190.55045166 400.14506622 191.26867676 399.94813538 C197.36377563 398.1591206 202.24321672 395.34038309 206.3125 390.4375 C206.80363281 389.85871094 207.29476563 389.27992188 207.80078125 388.68359375 C212.37046313 382.26817717 210.53518054 370.81565851 209.3248291 363.35751343 C208.40082302 358.29033008 207.30553012 353.26126836 206.203125 348.23046875 C205.80795083 346.3742209 205.41399308 344.51771372 205.0211792 342.66096497 C204.20058441 338.79884332 203.36929317 334.93924623 202.52929688 331.08129883 C201.45922996 326.1651115 200.4106093 321.24466119 199.36925125 316.32232189 C198.55893354 312.49884532 197.74024232 308.67720126 196.9187851 304.8561039 C196.52945097 303.04302029 196.1419609 301.22953958 195.75644684 299.41563988 C192.7044562 281.92190368 192.7044562 281.92190368 184.0625 266.9375 C183.41410156 266.22464844 182.76570313 265.51179688 182.09765625 264.77734375 C176.58486491 260.10635668 170.1657554 260.35265719 163.26251602 260.7767334 C154.67228713 261.62442296 146.21013835 263.78158745 137.79296875 265.625 Z " fill="#FC9257" transform="translate(247,40)"/>
<path d="M0 0 C0.83113312 -0.00983917 1.66226624 -0.01967834 2.51858521 -0.02981567 C21.02415242 -0.20361428 39.02941651 -0.11396961 57.12890625 4.23828125 C58.1152002 4.47434082 59.10149414 4.71040039 60.11767578 4.95361328 C105.05079991 16.12387703 146.04142921 42.27197709 173.81738281 79.48242188 C174.67210036 80.62671238 175.53314886 81.76630959 176.40136719 82.90039062 C208.57273395 124.94166148 220.83287117 180.71777474 214.05126953 232.83349609 C208.61537008 268.20242493 208.61537008 268.20242493 201.12890625 276.23828125 C195.23416941 276.97512336 195.23416941 276.97512336 192.25390625 274.98828125 C190.42975589 272.15071403 189.95735217 270.11606051 190.61035156 266.77490234 C190.88975586 265.86305176 191.16916016 264.95120117 191.45703125 264.01171875 C191.76108887 262.98836426 192.06514648 261.96500977 192.37841797 260.91064453 C192.7085791 259.82251465 193.03874023 258.73438477 193.37890625 257.61328125 C195.62698384 249.91208902 197.73392145 242.29111785 199.00390625 234.36328125 C199.1112207 233.69474121 199.21853516 233.02620117 199.32910156 232.33740234 C206.69442406 182.73848312 194.24833795 131.28345973 164.40917969 90.93847656 C132.76660287 48.91732763 87.90338496 23.39547009 36.12890625 15.23828125 C-12.95028754 8.42468385 -63.46423344 22.69971209 -102.87109375 52.23828125 C-106.63185462 55.13739944 -110.28061746 58.13135208 -113.87109375 61.23828125 C-114.74507813 61.98980469 -115.6190625 62.74132813 -116.51953125 63.515625 C-121.75181594 68.11155074 -126.46116281 72.85518464 -130.87109375 78.23828125 C-131.30147949 78.75100586 -131.73186523 79.26373047 -132.17529297 79.79199219 C-139.98432213 89.1057073 -146.76315493 98.73252107 -152.87109375 109.23828125 C-153.22655273 109.84075684 -153.58201172 110.44323242 -153.94824219 111.06396484 C-166.48525922 132.51815596 -173.5046739 156.74207101 -176.87109375 181.23828125 C-177.00386719 182.16253906 -177.13664062 183.08679688 -177.2734375 184.0390625 C-182.71378157 230.76640128 -168.45443495 281.41259294 -139.43359375 318.48828125 C-135.18420459 323.85344438 -130.62245871 328.81066092 -125.76953125 333.640625 C-123.40390461 336.87754211 -123.06626059 339.26988874 -122.87109375 343.23828125 C-123.87109375 345.67578125 -123.87109375 345.67578125 -125.87109375 347.23828125 C-129.24609375 347.80078125 -129.24609375 347.80078125 -132.87109375 347.23828125 C-135.28125 345.03125 -135.28125 345.03125 -137.87109375 342.23828125 C-138.68707031 341.408125 -139.50304687 340.57796875 -140.34375 339.72265625 C-178.55495221 299.37900384 -193.15012697 245.68888081 -192.00292969 191.30419922 C-190.51659158 137.87548575 -163.50538674 88.01551148 -125.30859375 51.80078125 C-92.24123242 21.24018343 -45.39096996 0.44346789 0 0 Z " fill="#FF5151" transform="translate(232.87109375,-0.23828125)"/>
<path d="M0 0 C2.62150352 2.04550499 3.85180932 3.23582995 4.49219131 6.53806686 C4.48666056 7.98159468 4.48666056 7.98159468 4.48101807 9.45428467 C4.48651672 10.56203751 4.49201538 11.66979034 4.49768066 12.81111145 C4.48329956 14.02167709 4.46891846 15.23224274 4.45410156 16.47949219 C4.45468567 17.75779404 4.45526978 19.03609589 4.45587158 20.35313416 C4.45701909 23.85507692 4.43350472 27.35647148 4.40557575 30.85828686 C4.38056773 34.5191234 4.37822059 38.17997257 4.37347412 41.84088135 C4.36104252 48.77177413 4.32821863 55.70241448 4.28807616 62.63319612 C4.24336402 70.52427597 4.22137285 78.41536788 4.20129442 86.30654287 C4.15948599 102.53784301 4.0891306 118.76888929 4 135 C4.94762207 135.14695313 5.89524414 135.29390625 6.87158203 135.4453125 C15.22787088 136.92693325 21.16902098 143.3768836 26 150 C30.26915784 157.69920535 30.74734709 166.66691909 28.984375 175.16015625 C25.99985709 183.77025356 19.06574353 191.39631564 11.27734375 196.0234375 C2.77270036 199.95976926 -7.3375088 198.93957066 -15.9375 195.9375 C-24.8414935 192.06431692 -28.99179086 186.84979642 -33.15234375 178.234375 C-34 176 -34 176 -34 173 C-34.80322189 173.01110306 -35.60644379 173.02220612 -36.43400574 173.03364563 C-44.01120841 173.13391613 -51.58808851 173.20999892 -59.16578197 173.25906086 C-63.06141191 173.28513253 -66.95649273 173.32048427 -70.85180664 173.37719727 C-74.61252026 173.43160664 -78.37270644 173.46143883 -82.13378334 173.47438622 C-83.56714492 173.48361035 -85.00047828 173.50162371 -86.43361473 173.52865028 C-88.44398106 173.56504759 -90.45488047 173.56704327 -92.46557617 173.56762695 C-93.60919113 173.57873001 -94.75280609 173.58983307 -95.93107605 173.60127258 C-99.97560077 172.80885743 -101.49012559 171.20241549 -104 168 C-103.9263784 164.24529849 -103.67158839 162.67158839 -101 160 C-98.21591187 159.75949097 -98.21591187 159.75949097 -94.62255859 159.77294922 C-93.96877731 159.77265717 -93.31499603 159.77236511 -92.6414032 159.77206421 C-90.47694704 159.77345935 -88.31283364 159.7890288 -86.1484375 159.8046875 C-84.64914132 159.80841698 -83.1498427 159.81126426 -81.65054321 159.81326294 C-77.70163257 159.82090452 -73.75286871 159.8405574 -69.80401611 159.8626709 C-65.77561428 159.8831181 -61.74718876 159.89226224 -57.71875 159.90234375 C-49.81243259 159.92380289 -41.90623455 159.95794505 -34 160 C-33.85900879 158.895354 -33.71801758 157.79070801 -33.57275391 156.65258789 C-32.42983557 149.36392581 -27.46301998 143.73160884 -21.796875 139.21875 C-17.65292049 136.40806781 -14.09374887 135 -9 135 C-9.00276538 134.32247272 -9.00553076 133.64494543 -9.00837994 132.94688702 C-9.07459023 116.4724273 -9.12425638 99.99800965 -9.15543652 83.52344799 C-9.17091521 75.55651768 -9.19202376 67.5896761 -9.22631836 59.62280273 C-9.25619017 52.68007309 -9.27556771 45.73740769 -9.28226548 38.79461557 C-9.28618154 35.11734682 -9.29540535 31.4402619 -9.31719017 27.76305199 C-9.34129426 23.66120574 -9.34197143 19.55968047 -9.34057617 15.45776367 C-9.351362 14.23425201 -9.36214783 13.01074036 -9.3732605 11.75015259 C-9.36913651 10.63536026 -9.36501251 9.52056793 -9.36076355 8.37199402 C-9.36352893 7.40134601 -9.36629431 6.43069799 -9.36914349 5.43063641 C-9 3 -9 3 -7.66104603 1.19159412 C-5.03638996 -0.69127047 -3.13262023 -0.44751718 0 0 Z M-18 155 C-21.01454376 158.98350425 -22.14712477 163.02534383 -22 168 C-20.80035353 173.70903185 -18.1347927 177.95917986 -14 182 C-8.7667067 185.01920767 -3.92467126 185.92605874 2 185 C7.66844335 183.06049189 11.64860016 178.84715883 15 174 C16.84152373 168.47542882 16.8169855 163.08994339 14.375 157.75 C11.59016611 152.82751193 8.18611943 149.93690833 2.9375 147.6875 C-5.51628383 145.70895485 -12.44736935 148.33684322 -18 155 Z " fill="#FE5151" transform="translate(247,40)"/>
<path d="M0 0 C5.78446336 3.805568 6.52319977 11.6634313 7.890625 18 C8.11071228 18.99829834 8.33079956 19.99659668 8.55755615 21.02514648 C9.01868757 23.12882989 9.47565831 25.23342914 9.92871094 27.33886719 C10.62331335 30.55469126 11.33818209 33.76555678 12.0546875 36.9765625 C12.50123532 39.02577287 12.9465884 41.07524402 13.390625 43.125 C13.60511292 44.08140381 13.81960083 45.03780762 14.04058838 46.02319336 C15.9130739 54.87609434 15.9130739 54.87609434 14.375 59.5625 C11.375 61.5625 11.375 61.5625 8.125 61.625 C3.73318763 60.38065316 2.17376242 58.78838277 -0.83203125 55.50390625 C-2.54983523 53.64388756 -4.32535349 52.01720363 -6.25 50.375 C-10.68895832 46.55644727 -14.9631993 42.56740361 -19.23291016 38.56176758 C-22.19231554 35.73747915 -22.19231554 35.73747915 -25.625 33.5625 C-25.43800537 34.37928223 -25.25101074 35.19606445 -25.05834961 36.03759766 C-24.36549639 39.08840428 -23.68273503 42.14125098 -23.0065918 45.19580078 C-22.56871939 47.15960676 -22.11940042 49.12084915 -21.66992188 51.08203125 C-21.39599609 52.32597656 -21.12207031 53.56992187 -20.83984375 54.8515625 C-20.58323975 55.99318848 -20.32663574 57.13481445 -20.06225586 58.31103516 C-19.60054945 61.744316 -19.68508643 64.23147275 -20.625 67.5625 C-23.86653166 69.7235211 -24.86192901 70.20497553 -28.625 69.5625 C-33.12248249 65.28472843 -33.95907823 60.38915136 -35.203125 54.546875 C-35.41942566 53.57647278 -35.63572632 52.60607056 -35.85858154 51.60626221 C-36.31208519 49.55683392 -36.75882257 47.50589813 -37.19921875 45.45361328 C-37.87049802 42.33342574 -38.56629123 39.21947399 -39.265625 36.10546875 C-39.70460134 34.10709457 -40.14214794 32.10840567 -40.578125 30.109375 C-40.78431458 29.18719177 -40.99050415 28.26500854 -41.20294189 27.31488037 C-44.11891363 13.55032726 -44.11891363 13.55032726 -41.625 8.5625 C-37.10145144 7.79435024 -34.8149105 7.79755753 -30.890625 10.3203125 C-26.09238251 14.23048249 -21.61063383 18.42462067 -17.30859375 22.87109375 C-12.73887219 27.46202051 -7.69198144 31.53872062 -2.625 35.5625 C-3.26924333 32.31218273 -3.91567263 29.06230394 -4.5625 25.8125 C-4.83610352 24.43191406 -4.83610352 24.43191406 -5.11523438 23.0234375 C-5.29248047 22.13398438 -5.46972656 21.24453125 -5.65234375 20.328125 C-5.81468506 19.51118164 -5.97702637 18.69423828 -6.14428711 17.85253906 C-6.45679066 16.36382231 -6.79689806 14.88054249 -7.16870117 13.40551758 C-8.05890356 9.8099382 -8.2386821 6.21701136 -7.625 2.5625 C-4.95448916 -0.10801084 -3.72495406 -0.62082568 0 0 Z " fill="#FF5151" transform="translate(380.625,341.4375)"/>
<path d="M0 0 C2.66551576 1.19347706 4.94983503 2.79433278 7.3125 4.5 C8.29416138 5.18340454 8.29416138 5.18340454 9.2956543 5.88061523 C14.71606286 9.69349577 19.95850954 13.69690965 25 18 C25.80695313 18.68449219 26.61390625 19.36898437 27.4453125 20.07421875 C52.75760035 42.17287758 71.52529783 72.82667299 78 106 C78.38814532 112.41778203 78.38814532 112.41778203 76 116 C72.625 116.9375 72.625 116.9375 69 117 C63.87524117 113.67530042 63.33725873 107.73056207 61.9375 102.1875 C55.70080714 79.27719968 44.41336351 57.00678061 27.23046875 40.30859375 C25 38 25 38 25 36 C24.43925781 35.7628125 23.87851562 35.525625 23.30078125 35.28125 C20.47768676 33.70913626 18.50656888 31.75138484 16.1875 29.5 C10.65563975 24.36274082 4.72777547 20.29031392 -1.6171875 16.2265625 C-4.56887932 14.30630921 -7.40925984 12.4015288 -10 10 C-10.49148241 6.49818786 -10.65989792 4.20334326 -8.9375 1.0625 C-5.84628204 -0.63268404 -3.48395197 -0.31575532 0 0 Z " fill="#FC9257" transform="translate(329,57)"/>
<path d="M0 0 C2.56687367 3.8503105 1.83288724 5.58569763 1 10 C-4.7129654 12.27865706 -10.30209346 13.90773655 -16.3125 15.1875 C-17.10978516 15.36474609 -17.90707031 15.54199219 -18.72851562 15.72460938 C-21.91669049 16.41908985 -24.72315008 17 -28 17 C-27.01 20.63 -26.02 24.26 -25 28 C-20.37799665 27.5598092 -15.94784042 27.04544077 -11.4375 25.9375 C-6.643225 24.82919124 -1.49812948 23.71308481 3.0625 26.0625 C4.58299975 29.20486615 3.78072633 31.69692708 3 35 C0.61032653 37.38967347 -0.74082226 37.57558187 -4.0078125 38.2890625 C-5.48701172 38.61777344 -5.48701172 38.61777344 -6.99609375 38.953125 C-8.02863281 39.17484375 -9.06117188 39.3965625 -10.125 39.625 C-11.68541016 39.96917969 -11.68541016 39.96917969 -13.27734375 40.3203125 C-15.85012094 40.88679555 -18.42488305 41.44424988 -21 42 C-20.67 45.96 -20.34 49.92 -20 54 C-17.75703125 53.45859375 -17.75703125 53.45859375 -15.46875 52.90625 C-13.47927639 52.43703453 -11.48968683 51.96831051 -9.5 51.5 C-8.51773438 51.26152344 -7.53546875 51.02304687 -6.5234375 50.77734375 C7.22355769 47.56971154 7.22355769 47.56971154 12.0625 50.0625 C13.67917928 53.40363718 13.11135811 55.54244145 12 59 C5.66140625 62.54269105 -1.58994705 63.66549335 -8.625 65.1875 C-9.83929688 65.46013672 -11.05359375 65.73277344 -12.3046875 66.01367188 C-23.76194433 68.53098766 -23.76194433 68.53098766 -27 68 C-31.60448843 63.98909973 -32.36091006 58.7006441 -33.578125 52.984375 C-33.79442566 52.01397278 -34.01072632 51.04357056 -34.23358154 50.04376221 C-34.68708519 47.99433392 -35.13382257 45.94339813 -35.57421875 43.89111328 C-36.24549802 40.77092574 -36.94129123 37.65697399 -37.640625 34.54296875 C-38.07960134 32.54459457 -38.51714794 30.54590567 -38.953125 28.546875 C-39.15931458 27.62469177 -39.36550415 26.70250854 -39.57794189 25.75238037 C-41.94711851 14.568919 -41.94711851 14.568919 -41 9 C-38.24293235 5.57108529 -34.20371329 5.09449406 -30.0390625 4.140625 C-29.37087494 3.98712585 -28.70268738 3.83362671 -28.01425171 3.67547607 C-26.60501905 3.35471291 -25.1946302 3.03899244 -23.78320312 2.72802734 C-21.63543245 2.25231072 -19.49370905 1.75426524 -17.3515625 1.25390625 C-15.97686906 0.94394973 -14.60187742 0.63531222 -13.2265625 0.328125 C-11.98471191 0.0487207 -10.74286133 -0.23068359 -9.46337891 -0.51855469 C-5.92900278 -1.00986934 -3.42348286 -0.98671342 0 0 Z " fill="#FF5151" transform="translate(325,355)"/>
<path d="M0 0 C5.06413776 4.14237585 7.88658148 8.39531122 9.6875 14.6875 C10.01105469 15.7909375 10.33460938 16.894375 10.66796875 18.03125 C13.24068924 27.79067797 14.2227479 36.93831618 9.046875 45.99609375 C4.90253303 51.86724488 -0.44338655 55.66174574 -7.5 57.1875 C-15.06186873 58.05584856 -21.30378454 57.02340385 -27.6328125 52.74609375 C-37.04686555 45.26001097 -38.99786172 34.71210188 -40.5 23.1875 C-40.73209199 16.54609845 -39.43648503 10.61984935 -35.5 5.1875 C-26.09820538 -4.78469639 -11.92511262 -8.66468857 0 0 Z M-25.8125 13.3125 C-29.20032305 19.08434667 -27.67145018 25.08009286 -26.3125 31.375 C-24.64528633 37.51942596 -22.64258587 41.09244276 -17.25 44.6875 C-13.01394493 45.45769183 -9.47322406 44.81421854 -5.5 43.1875 C-2.09537085 40.20844949 -0.76835772 38.05571614 0.5625 33.75 C1.01537165 26.65501088 -1.07080021 17.80062797 -5.046875 11.88671875 C-7.98252327 9.06553383 -10.55323237 7.85547741 -14.625 7.625 C-19.75466704 8.36962909 -22.06105393 9.86522523 -25.8125 13.3125 Z " fill="#FF5151" transform="translate(215.5,385.8125)"/>
<path d="M0 0 C4.65200033 3.65761364 8.12256218 8.41799743 8.875 14.4375 C9.37665026 20.95895344 8.4762913 26.31220757 4.24609375 31.39453125 C-0.68901088 36.13023771 -5.55609631 37.92569396 -12.125 39.4375 C-13.5022614 39.8253918 -14.87760892 40.22021394 -16.25 40.625 C-17.19875 40.893125 -18.1475 41.16125 -19.125 41.4375 C-18.89683594 42.39011719 -18.66867188 43.34273438 -18.43359375 44.32421875 C-18.14613281 45.57847656 -17.85867187 46.83273437 -17.5625 48.125 C-17.27246094 49.36636719 -16.98242188 50.60773438 -16.68359375 51.88671875 C-16.15805229 55.22739837 -16.09422699 57.25304483 -17.125 60.4375 C-18.875 62.3125 -18.875 62.3125 -21.125 63.4375 C-23.6875 63.375 -23.6875 63.375 -26.125 62.4375 C-28.62832957 59.63369872 -29.66381913 57.21988244 -30.49121094 53.58056641 C-30.71444031 52.61921783 -30.93766968 51.65786926 -31.16766357 50.66738892 C-31.39592834 49.6350412 -31.62419312 48.60269348 -31.859375 47.5390625 C-32.10165833 46.47134613 -32.34394165 45.40362976 -32.59356689 44.30355835 C-33.1026625 42.0469112 -33.60667216 39.78911149 -34.10595703 37.53027344 C-34.87135412 34.07894002 -35.65915526 30.63325978 -36.44921875 27.1875 C-36.94146664 24.9924926 -37.43239609 22.79718903 -37.921875 20.6015625 C-38.27641754 19.05911362 -38.27641754 19.05911362 -38.63812256 17.48550415 C-40.68559618 8.0788147 -40.68559618 8.0788147 -39.125 3.4375 C-36.63554538 1.90988012 -34.89067639 1.21578079 -32.125 0.4375 C-31.18011719 0.1590625 -30.23523438 -0.119375 -29.26171875 -0.40625 C-19.82387338 -2.89535208 -8.79160791 -5.39026452 0 0 Z M-26.125 12.4375 C-25.135 17.7175 -24.145 22.9975 -23.125 28.4375 C-20.3096875 28.0353125 -20.3096875 28.0353125 -17.4375 27.625 C-16.38175781 27.47417969 -15.32601562 27.32335937 -14.23828125 27.16796875 C-10.01146184 26.1762307 -7.18047025 24.49297025 -4.125 21.4375 C-3.54644264 17.0569943 -3.6290439 15.12308638 -6.25 11.5 C-12.51509938 7.00547219 -19.30295022 10.4408025 -26.125 12.4375 Z " fill="#FF5151" transform="translate(270.125,371.5625)"/>
<path d="M0 0 C2 2 2 2 2.375 4.875 C1.90531862 8.78901147 1.04533058 9.56900179 -2 12 C-5.12934875 13.0572052 -5.12934875 13.0572052 -8.8605957 13.84692383 C-9.54243927 13.99541779 -10.22428284 14.14391174 -10.92678833 14.29690552 C-13.17354014 14.78197939 -15.42418114 15.24502978 -17.67578125 15.70703125 C-19.24533942 16.03903668 -20.81468802 16.37203423 -22.38383484 16.70597839 C-25.67119073 17.40208928 -28.96053107 18.08757681 -32.25170898 18.76538086 C-36.45871653 19.63246161 -40.66022896 20.52339097 -44.86057758 21.42210865 C-48.10076015 22.11300342 -51.34330305 22.79222914 -54.5866909 23.46790123 C-56.13624587 23.79193055 -57.68511202 24.11927294 -59.23324013 24.45005226 C-61.40366959 24.91172616 -63.57675379 25.35783785 -65.7512207 25.80004883 C-67.60176811 26.1849926 -67.60176811 26.1849926 -69.48970032 26.57771301 C-73.28862765 27.03472174 -76.28103458 26.89399222 -80 26 C-82.33043558 22.50434664 -82.58763244 21.1134271 -82 17 C-78.42140111 13.48128449 -75.33169982 12.28383085 -70.46899414 11.27661133 C-69.83416611 11.14108353 -69.19933807 11.00555573 -68.54527283 10.86592102 C-66.46113562 10.4244847 -64.37348666 10.00314119 -62.28515625 9.58203125 C-60.82668959 9.27745656 -59.36847632 8.9716662 -57.9105072 8.66471863 C-54.07996676 7.86182811 -50.24609812 7.07610373 -46.41131592 6.29376221 C-42.51998573 5.49644551 -38.63229836 4.6817582 -34.74414062 3.86914062 C-29.05129684 2.68269854 -23.35749746 1.50106833 -17.66040039 0.33520508 C-16.51632217 0.10078201 -15.37224396 -0.13364105 -14.1934967 -0.37516785 C-4.35731265 -2.29969279 -4.35731265 -2.29969279 0 0 Z " fill="#FC9257" transform="translate(369,430)"/>
<path d="M0 0 C1.69604492 1.27612305 1.69604492 1.27612305 3 3 C3.27722346 6.01964912 3.376621 8.79793069 3.3125 11.8125 C3.3026709 12.65820557 3.2928418 13.50391113 3.28271484 14.37524414 C2.88137202 34.23796319 2.88137202 34.23796319 -1 40 C-4.3125 41.0625 -4.3125 41.0625 -8 41 C-10.734375 38.97119141 -10.734375 38.97119141 -13 36 C-13.26903929 33.19016289 -13.26498965 31.14007758 -12.9375 28.3984375 C-12.83767822 27.32101791 -12.83767822 27.32101791 -12.73583984 26.22183228 C-12.59013484 24.70942336 -12.43133304 23.19822575 -12.26025391 21.68847656 C-12.00030044 19.37767067 -11.78407926 17.06583781 -11.57421875 14.75 C-11.42703156 13.27838831 -11.27737574 11.807021 -11.125 10.3359375 C-11.02626587 9.29993912 -11.02626587 9.29993912 -10.92553711 8.24301147 C-10.59759217 5.46178276 -10.26879356 3.38483703 -8.6484375 1.06494141 C-5.80861056 -0.76967428 -3.26001015 -0.3492868 0 0 Z " fill="#FC9258" transform="translate(407,192)"/>
<path d="M0 0 C1.6765629 3.05726176 1.42778977 5.5281288 1.0625 8.9375 C-2.37827567 13.82080018 -9.46647216 13.98798277 -14.9375 14.9375 C-18.53809208 15.3548793 -21.63597187 15.62893682 -24.9375 13.875 C-26.52183618 10.80534865 -26.29998449 8.32068857 -25.9375 4.9375 C-23.5185188 1.39480768 -20.21960624 1.06766961 -16.1875 0.25 C-14.99640625 -0.00136719 -13.8053125 -0.25273437 -12.578125 -0.51171875 C-3.45107903 -1.89252721 -3.45107903 -1.89252721 0 0 Z " fill="#FC9157" transform="translate(406.9375,421.0625)"/>
</svg>
