<?xml version="1.0" encoding="UTF-8"?>
<svg version="1.1" xmlns="http://www.w3.org/2000/svg" width="512" height="512">
<path d="M0 0 C1.55269844 -0.01292336 1.55269844 -0.01292336 3.13676453 -0.02610779 C6.54756932 -0.04874755 9.95755075 -0.04202968 13.3684082 -0.03295898 C15.75104515 -0.03819712 18.13368002 -0.04447429 20.51631165 -0.05174255 C25.50869505 -0.06214446 30.50079343 -0.05759054 35.49316406 -0.04296875 C41.86725928 -0.02582181 48.24044959 -0.04922789 54.61444378 -0.08445835 C59.53638092 -0.10650666 64.45810429 -0.10497214 69.38007545 -0.09669304 C71.72863568 -0.09587682 74.07721212 -0.10267667 76.42572594 -0.11746407 C104.57891125 -0.26750314 104.57891125 -0.26750314 115.7355957 10.54125977 C124.83916529 20.92788278 126.00082937 32.90483092 127.80419922 46.08837891 C132.77528215 82.30768421 142.85285744 115.98046489 156.40942383 149.80737305 C160.11561658 159.22981118 159.8168556 170.76003297 155.79418945 180.07641602 C147.68373447 195.25938085 131.7071581 201.15041267 116.96289062 208.4609375 C113.89169604 209.98458701 110.82609531 211.51908238 107.76098633 213.05493164 C105.81273648 214.02627257 103.86417995 214.99699868 101.9152832 215.96704102 C100.99766708 216.42630478 100.08005096 216.88556854 99.1346283 217.35874939 C98.28937088 217.77661209 97.44411346 218.19447479 96.57324219 218.625 C95.45718849 219.1795713 95.45718849 219.1795713 94.31858826 219.74534607 C92.48168945 220.53344727 92.48168945 220.53344727 90.48168945 220.53344727 C100.98892879 240.66123907 113.63189734 259.56614939 127.48168945 277.53344727 C127.91481445 278.09805664 128.34793945 278.66266602 128.79418945 279.24438477 C134.11428901 286.16655975 139.54177484 292.89428708 145.4543457 299.32641602 C147.2321036 301.26174012 148.95745197 303.22747743 150.66918945 305.22094727 C181.23110695 340.11888051 217.55971375 369.17701937 257.23168945 393.09594727 C258.10229004 393.6213208 258.97289062 394.14669434 259.86987305 394.68798828 C260.68536621 395.17452881 261.50085938 395.66106934 262.34106445 396.16235352 C263.06777344 396.59620361 263.79448242 397.03005371 264.54321289 397.47705078 C266.5954186 398.66929615 266.5954186 398.66929615 269.48168945 399.53344727 C269.7142041 398.74679687 269.94671875 397.96014648 270.1862793 397.1496582 C271.86003623 392.47727077 274.00732621 388.11788686 276.20825195 383.67407227 C276.67476166 382.72965271 277.14127136 381.78523315 277.62191772 380.81219482 C278.60986836 378.81744527 279.60012361 376.8238357 280.5925293 374.83129883 C282.09194768 371.81312097 283.57405307 368.78684065 285.0559082 365.76000977 C298.01603729 339.54526181 298.01603729 339.54526181 311.48168945 333.53344727 C324.63470856 329.10813243 335.81387432 331.27963497 348.15112305 336.5534668 C375.80384237 348.18116587 404.65213933 356.68100945 434.3762207 360.80688477 C435.15242767 360.91492935 435.92863464 361.02297394 436.72836304 361.1342926 C440.5797153 361.66594845 444.4322918 362.17804291 448.2902832 362.65917969 C461.41096479 364.34900833 473.48583279 367.0220768 482.2668457 377.70532227 C488.0699132 385.9750499 489.93172722 393.27561321 489.90161133 403.22875977 C489.91008087 404.27046326 489.91855042 405.31216675 489.92727661 406.38543701 C489.95057035 409.80989981 489.9516707 413.23391142 489.95043945 416.65844727 C489.95754452 419.04923684 489.96524403 421.44002471 489.97351074 423.83081055 C489.98693727 428.83395127 489.98853197 433.83693422 489.98266602 438.84008789 C489.97676533 445.24253954 490.00738646 451.64423412 490.0477829 458.04653931 C490.07366253 462.98116109 490.07653714 467.91560048 490.07289124 472.85028076 C490.07458155 475.21052964 490.08421546 477.57078703 490.10203552 479.93096924 C490.12423425 483.23387051 490.11451791 486.53523759 490.09692383 489.83813477 C490.1168187 491.29095856 490.1168187 491.29095856 490.13711548 492.77313232 C490.05804477 499.17963553 488.72404621 503.63131339 484.48168945 508.53344727 C480.01495394 512.30938653 475.58417423 513.0376828 469.8293457 513.02954102 C469.10499329 513.03226517 468.38064087 513.03498932 467.63433838 513.03779602 C465.27022298 513.03834546 462.90801533 513.00674254 460.54418945 512.97094727 C459.72856537 512.96446167 458.91294128 512.95797607 458.07260132 512.95129395 C432.65198084 512.74451905 407.51056635 509.95123766 382.48168945 505.53344727 C381.46623047 505.35587891 380.45077148 505.17831055 379.40454102 504.99536133 C342.39205857 498.39313473 305.8305466 486.79570161 271.48168945 471.53344727 C270.49410645 471.10064453 269.50652344 470.6678418 268.48901367 470.22192383 C239.63072232 457.54113395 212.0846087 441.94453526 186.48168945 423.53344727 C185.71872559 422.98688477 184.95576172 422.44032227 184.16967773 421.87719727 C174.95143565 415.24967879 165.94905115 408.47631415 157.3762207 401.02954102 C154.6885469 398.7118304 151.94611441 396.49264534 149.16918945 394.28344727 C137.58061887 384.81250037 127.01082444 374.14869008 116.41918945 363.59594727 C115.09878662 362.28255371 115.09878662 362.28255371 113.75170898 360.94262695 C108.78770358 355.96628979 104.04371902 350.87905063 99.48168945 345.53344727 C98.53241863 344.45031921 97.58195105 343.36823851 96.63012695 342.28735352 C88.8288965 333.34383481 81.56676614 324.05137695 74.48168945 314.53344727 C73.94930664 313.8220459 73.41692383 313.11064453 72.8684082 312.37768555 C59.08650863 293.89703006 47.0425338 274.41301978 35.95288086 254.21313477 C35.02048446 252.51483028 34.08324211 250.81916989 33.1394043 249.12719727 C3.42548756 195.79511159 -13.75670204 134.049279 -20.51831055 73.53344727 C-20.62127441 72.65543457 -20.72423828 71.77742188 -20.83032227 70.87280273 C-22.27988108 58.12447109 -22.78100775 45.35490587 -22.92471313 32.53250122 C-22.94526497 30.8809121 -22.97374887 29.22940056 -23.0105896 27.57809448 C-23.33486444 11.81785722 -23.33486444 11.81785722 -19.28027344 6.05883789 C-13.04846866 0.66375458 -8.0030915 -0.05407325 0 0 Z " fill="#F44336" transform="translate(22.518310546875,-0.533447265625)"/>
</svg>
